<?xml version="1.0" encoding="UTF-8" standalone="no"?>
<!-- Created with Inkscape (http://www.inkscape.org/) -->

<svg
   xmlns:dc="http://purl.org/dc/elements/1.1/"
   xmlns:cc="http://creativecommons.org/ns#"
   xmlns:rdf="http://www.w3.org/1999/02/22-rdf-syntax-ns#"
   xmlns:svg="http://www.w3.org/2000/svg"
   xmlns="http://www.w3.org/2000/svg"
   xmlns:sodipodi="http://sodipodi.sourceforge.net/DTD/sodipodi-0.dtd"
   xmlns:inkscape="http://www.inkscape.org/namespaces/inkscape"
   id="svg2985"
   version="1.1"
   inkscape:version="0.48.4 r9939"
   width="310"
   height="310"
   sodipodi:docname="Yiguandao fire.svg">
  <metadata
     id="metadata2991">
    <rdf:RDF>
      <cc:Work
         rdf:about="">
        <dc:format>image/svg+xml</dc:format>
        <dc:type
           rdf:resource="http://purl.org/dc/dcmitype/StillImage" />
        <dc:title />
      </cc:Work>
    </rdf:RDF>
  </metadata>
  <defs
     id="defs2989" />
  <sodipodi:namedview
     pagecolor="#ffffff"
     bordercolor="#666666"
     borderopacity="1"
     objecttolerance="10"
     gridtolerance="10"
     guidetolerance="10"
     inkscape:pageopacity="0"
     inkscape:pageshadow="2"
     inkscape:window-width="1600"
     inkscape:window-height="837"
     id="namedview2987"
     showgrid="false"
     inkscape:zoom="2.0967742"
     inkscape:cx="155"
     inkscape:cy="155"
     inkscape:window-x="-8"
     inkscape:window-y="-8"
     inkscape:window-maximized="1"
     inkscape:current-layer="svg2985" />
  <path
     style="fill:#000000"
     d="m 199.99471,176.91871 c -7.63857,-1.51124 -15.34054,-9.58805 -17.09409,-17.92604 -1.83755,-8.73735 3.26302,-17.88525 12.5243,-22.46242 3.51585,-1.73763 3.81397,-1.79948 8.67342,-1.79948 4.74439,0 5.22032,0.0918 8.31516,1.60467 4.20309,2.05456 8.96039,6.71653 10.67447,10.46057 1.46927,3.20931 1.93843,8.53167 1.10567,12.54307 -1.84075,8.86686 -9.05311,15.94484 -17.89277,17.55942 -3.15413,0.57611 -3.49092,0.57718 -6.30616,0.0202 l 0,0 z"
     id="path3007"
     inkscape:connector-curvature="0" />
  <path
     style="fill:#000000"
     d="m 149.15029,295.65031 c -4.84392,-1.14121 -10.00236,-5.51161 -12.50686,-10.59622 -1.46075,-2.9656 -1.75862,-4.17499 -2.19592,-8.91563 -0.35803,-3.88131 -0.77303,-5.91779 -1.41964,-6.96644 C 131.91641,267.36949 128.51792,265.511 120.9,262.53981 89.759408,250.39417 67.344013,230.95884 54.777292,205.20793 49.303523,193.99143 46.431474,185.36122 44.417209,174.07692 40.961127,154.71531 42.192738,139.51896 48.89938,118.77325 54.873968,100.292 63.925576,86.169408 78.39749,72.749403 c 12.371058,-11.47186 22.07003,-17.527039 38.92559,-24.301695 11.21876,-4.509095 15.07961,-6.41522 15.68493,-7.743759 0.29571,-0.649017 0.97016,-3.90272 1.49878,-7.230451 1.41154,-8.885891 1.99984,-10.576079 4.71528,-13.547213 4.41242,-4.827893 10.0182,-6.840333 17.92408,-6.43464 10.87684,0.558148 16.26002,4.477765 18.52512,13.48856 0.39092,1.555118 0.95594,4.740535 1.2556,7.078704 0.29966,2.33817 0.86179,4.864132 1.24917,5.613249 1.14975,2.223374 3.97491,3.877466 12.44581,7.286858 19.64484,7.906709 29.39074,13.793849 41.03392,24.787079 17.1716,16.213038 28.77978,35.029045 33.78319,54.760055 3.80523,15.00595 4.22261,33.63246 1.11619,49.81136 -4.76709,24.82799 -18.15366,47.77771 -37.31188,63.96689 -12.10251,10.22693 -18.55986,13.98749 -36.87338,21.47386 -13.40221,5.47869 -13.00324,5.28177 -13.79229,6.80762 -0.37066,0.71679 -1.00285,3.51866 -1.40485,6.22638 -0.87002,5.85998 -1.81198,9.3113 -3.39269,12.43068 -1.35024,2.66457 -4.251,5.64471 -6.56161,6.74117 -3.98639,1.89166 -13.44812,2.77468 -18.06816,1.6862 l 0,0 z M 129.68751,226.5575 c 0.47057,-0.25184 1.32719,-1.55419 1.90361,-2.89411 0.86439,-2.00933 1.13321,-3.95565 1.53414,-11.1075 0.5866,-10.46347 0.81662,-121.978855 0.25965,-125.875121 l -0.39201,-2.742307 -2.97307,0 c -7.35693,0 -17.13606,5.938216 -28.3966,17.243368 -9.511967,9.54965 -14.916219,18.10412 -18.6442,29.51219 -2.711847,8.29857 -3.730456,19.38758 -2.868932,31.23241 0.609428,8.37883 1.119223,11.65653 2.520327,16.20434 1.494048,4.84949 7.018132,15.54473 10.588135,20.49982 8.03718,11.15541 19.51509,20.98683 30.99467,26.54852 4.16557,2.01816 4.24261,2.03756 5.47428,1.37839 l 0,0 z m 54.43747,-0.77357 c 3.13097,-0.91198 11.0581,-5.02614 14.9904,-7.77998 13.58998,-9.51721 24.39726,-24.0779 29.59481,-39.87318 1.59842,-4.85757 1.76198,-5.89969 2.20814,-14.06923 0.58477,-10.70764 0.24587,-22.29482 -0.79977,-27.34404 -1.76669,-8.53106 -6.12182,-18.09599 -11.50604,-25.27005 -8.58791,-11.44272 -24.28313,-24.50598 -33.09877,-27.548349 -3.58955,-1.238793 -5.29047,-1.030531 -6.10033,0.746933 -2.05455,4.509222 -2.66104,25.041996 -2.32465,78.700116 0.27218,43.41592 0.79696,61.31968 1.83394,62.56917 0.68129,0.82091 2.05171,0.7863 5.20227,-0.13139 l 0,0 z"
     id="path3003"
     inkscape:connector-curvature="0" />
  <path
     style="fill:#000000"
     d="m 102.3,176.35565 c -4.66621,-1.65515 -12.351429,-8.62787 -14.423602,-13.0864 -1.090353,-2.34602 -1.293222,-3.42317 -1.287951,-6.83848 0.01405,-9.10445 4.620725,-15.76771 13.960073,-20.19236 2.85507,-1.35264 3.62355,-1.50562 7.47456,-1.48802 3.66301,0.0167 4.67687,0.20726 6.91538,1.29949 5.84385,2.85137 11.30324,8.59546 13.36786,14.06499 0.82435,2.18382 0.99053,3.44023 0.8199,6.19876 -0.5102,8.24844 -7.79742,17.12513 -16.20749,19.74264 -3.1131,0.96891 -8.31752,1.11564 -10.61873,0.29938 z"
     id="path3005"
     inkscape:connector-curvature="0" />
</svg>
