<?xml version="1.0" encoding="UTF-8" standalone="no"?>
<!-- Created with Inkscape (http://www.inkscape.org/) -->

<svg
   xmlns:dc="http://purl.org/dc/elements/1.1/"
   xmlns:cc="http://creativecommons.org/ns#"
   xmlns:rdf="http://www.w3.org/1999/02/22-rdf-syntax-ns#"
   xmlns:svg="http://www.w3.org/2000/svg"
   xmlns="http://www.w3.org/2000/svg"
   xmlns:sodipodi="http://sodipodi.sourceforge.net/DTD/sodipodi-0.dtd"
   xmlns:inkscape="http://www.inkscape.org/namespaces/inkscape"
   id="svg2"
   version="1.1"
   inkscape:version="0.48.2 r9819"
   width="1000"
   height="1000"
   sodipodi:docname="Great_Earth_Symbol.svg">
  <metadata
     id="metadata8">
    <rdf:RDF>
      <cc:Work
         rdf:about="">
        <dc:format>image/svg+xml</dc:format>
        <dc:type
           rdf:resource="http://purl.org/dc/dcmitype/StillImage" />
        <dc:title></dc:title>
      </cc:Work>
    </rdf:RDF>
  </metadata>
  <defs
     id="defs6" />
  <sodipodi:namedview
     pagecolor="#ffffff"
     bordercolor="#666666"
     borderopacity="1"
     objecttolerance="10"
     gridtolerance="10"
     guidetolerance="10"
     inkscape:pageopacity="0"
     inkscape:pageshadow="2"
     inkscape:window-width="1366"
     inkscape:window-height="715"
     id="namedview4"
     showgrid="false"
     inkscape:zoom="0.31846794"
     inkscape:cx="121.47873"
     inkscape:cy="149.8999"
     inkscape:window-x="-8"
     inkscape:window-y="-8"
     inkscape:window-maximized="1"
     inkscape:current-layer="svg2" />
  <g
     id="g3292"
     style="fill:#cc0000;fill-opacity:1"
     transform="matrix(0,2.2549304,-2.2549304,0,1731.3575,-1939.0087)">
    <path
       id="path3294"
       d="m 1079.3993,346.51095 c -1.8363,0.0275 -1.5984,2.71253 0.9688,8.15625 5.8919,12.49393 7.8389,18.81906 7.9062,25.46875 0.057,5.60041 -0.2303,7.07666 -2.25,11.0625 -2.398,4.73263 -7.4115,11.22459 -16.75,21.71875 -12.8841,14.47875 -20.4407,27.22183 -21.9687,37.09375 -1.2225,7.89773 0.3091,17.00557 5.2187,31.03125 2.2009,6.28748 4.4159,12.64055 4.9063,14.09375 l 1.9687,7.3125 c -15.8608,8.10238 -26.7187,24.59086 -26.7187,43.625 0,27.03544 21.9021,48.9375 48.9375,48.9375 27.0354,0 48.9687,-21.90206 48.9687,-48.9375 0,-21.12144 -13.3766,-39.13248 -32.125,-46 l 1.1563,-4.34375 c -0.2965,-1.18118 1.0556,-5.063 4,-11.40625 2.457,-5.29314 5.2204,-12.72146 6.125,-16.5 1.9329,-8.07401 2.1968,-17.93024 0.5312,-19.3125 -1.6466,-1.36663 -3.3191,-0.35013 -4.4062,2.65625 -0.5306,1.46737 -3.5327,6.80093 -6.6875,11.875 -7.5569,12.15414 -10.0632,17.1793 -12.0313,24.28125 -0.8976,3.23929 -2.1714,6.45265 -2.8437,7.125 -1.0911,1.0911 -1.446,1.00118 -3.2188,-0.78125 -3.3569,-3.37534 -4.7315,-10.81139 -4.25,-23 0.5994,-15.16994 1.2647,-16.89432 20.1875,-51.34375 10.7145,-19.50585 13.0819,-25.44541 13.125,-33.1875 0.031,-5.50183 -0.292,-6.73114 -3.1562,-12.53125 -2.5205,-5.10394 -4.7958,-8.02129 -10.9375,-14.1875 -8.5557,-8.58977 -14.2953,-12.94157 -16.6563,-12.90625 z m 2.2188,166.6875 c 18.1565,0 32.875,14.68722 32.875,32.84375 0,18.15653 -14.7185,32.90625 -32.875,32.90625 -18.1565,0 -32.8438,-14.74972 -32.8438,-32.90625 0,-18.15653 14.6873,-32.84375 32.8438,-32.84375 z"
       style="color:#000000;fill:#cc0000;fill-opacity:1;fill-rule:nonzero;stroke:none;stroke-width:3;marker:none;visibility:visible;display:inline;overflow:visible;enable-background:accumulate"
       inkscape:connector-curvature="0" />
    <path
       inkscape:connector-curvature="0"
       style="color:#000000;fill:#cc0000;fill-opacity:1;fill-rule:nonzero;stroke:none;stroke-width:3;marker:none;visibility:visible;display:inline;overflow:visible;enable-background:accumulate"
       d="m 1083.8681,745.63587 c 1.8363,-0.027 1.5984,-2.7125 -0.9688,-8.1563 -5.8919,-12.4939 -7.8389,-18.819 -7.9062,-25.4687 -0.057,-5.6004 0.2303,-7.0767 2.25,-11.0625 2.398,-4.7326 7.4115,-11.2246 16.75,-21.7188 12.8841,-14.4787 20.4407,-27.2218 21.9687,-37.0937 1.2225,-7.8977 -0.3091,-17.0056 -5.2187,-31.0313 -2.2009,-6.2874 -4.4159,-12.64051 -4.9063,-14.09371 l -1.9687,-7.3125 c 15.8608,-8.10238 26.7187,-24.59086 26.7187,-43.625 0,-27.03544 -21.9021,-48.9375 -48.9375,-48.9375 -27.0354,0 -48.9687,21.90206 -48.9687,48.9375 0,21.12144 13.3766,39.13248 32.125,46 l -1.1563,4.34375 c 0.2965,1.18118 -1.0556,5.06296 -4,11.40626 -2.457,5.2931 -5.2204,12.7214 -6.125,16.5 -1.9329,8.074 -2.1968,17.9302 -0.5312,19.3125 1.6466,1.3666 3.3191,0.3501 4.4062,-2.6563 0.5306,-1.4673 3.5327,-6.8009 6.6875,-11.875 7.5569,-12.1541 10.0632,-17.1793 12.0313,-24.2812 0.8976,-3.2393 2.1714,-6.45266 2.8437,-7.12501 1.0911,-1.0911 1.446,-1.00118 3.2188,0.78125 3.3569,3.37536 4.7315,10.81136 4.25,22.99996 -0.5994,15.17 -1.2647,16.8944 -20.1875,51.3438 -10.7145,19.5058 -13.0819,25.4454 -13.125,33.1875 -0.031,5.5018 0.292,6.7311 3.1562,12.5312 2.5205,5.104 4.7958,8.0213 10.9375,14.1875 8.5557,8.5898 14.2953,12.9416 16.6563,12.9063 z m -2.2188,-166.68751 c -18.1565,0 -32.875,-14.68722 -32.875,-32.84375 0,-18.15653 14.7185,-32.90625 32.875,-32.90625 18.1565,0 32.8438,14.74972 32.8438,32.90625 0,18.15653 -14.6873,32.84375 -32.8438,32.84375 z"
       id="path3296" />
    <path
       inkscape:connector-curvature="0"
       style="color:#000000;fill:#cc0000;fill-opacity:1;fill-rule:nonzero;stroke:none;stroke-width:3;marker:none;visibility:visible;display:inline;overflow:visible;enable-background:accumulate"
       d="m 1281.1962,543.83901 c -0.028,-1.8363 -2.7126,-1.5984 -8.1563,0.9688 -12.4939,5.8919 -18.8191,7.8389 -25.4687,7.9062 -5.6005,0.057 -7.0767,-0.2303 -11.0625,-2.25 -4.7327,-2.398 -11.2246,-7.4115 -21.7188,-16.75 -14.4787,-12.8841 -27.2218,-20.4407 -37.0937,-21.9687 -7.8978,-1.2225 -17.0056,0.3091 -31.0313,5.2187 -6.2875,2.2009 -12.6405,4.4159 -14.0937,4.9063 l -7.3125,1.9687 c -8.1024,-15.8608 -24.5909,-26.7187 -43.625,-26.7187 -27.0355,0 -48.9375,21.9021 -48.9375,48.9375 0,27.0354 21.902,48.9687 48.9375,48.9687 21.1214,0 39.1324,-13.3766 46,-32.125 l 4.3437,1.1563 c 1.1812,-0.2965 5.063,1.0556 11.4063,4 5.2931,2.457 12.7214,5.2204 16.5,6.125 8.074,1.9329 17.9302,2.1968 19.3125,0.5312 1.3666,-1.6466 0.3501,-3.3191 -2.6563,-4.4062 -1.4674,-0.5306 -6.8009,-3.5327 -11.875,-6.6875 -12.1541,-7.5569 -17.1793,-10.0632 -24.2812,-12.0313 -3.2393,-0.8976 -6.4527,-2.1714 -7.125,-2.8437 -1.0911,-1.0911 -1.0012,-1.446 0.7812,-3.2188 3.3753,-3.3569 10.8114,-4.7315 23,-4.25 15.1699,0.5994 16.8943,1.2647 51.3438,20.1875 19.5058,10.7145 25.4454,13.0819 33.1875,13.125 5.5018,0.031 6.7311,-0.292 12.5312,-3.1562 5.1039,-2.5205 8.0213,-4.7958 14.1875,-10.9375 8.5898,-8.5557 12.9416,-14.2953 12.9063,-16.6563 z m -166.6875,2.2188 c 0,18.1565 -14.6873,32.875 -32.8438,32.875 -18.1565,0 -32.9062,-14.7185 -32.9062,-32.875 0,-18.1565 14.7497,-32.8438 32.9062,-32.8438 18.1565,0 32.8438,14.6873 32.8438,32.8438 z"
       id="path3298" />
    <path
       id="path3300"
       d="m 882.07123,548.30781 c 0.027,1.8363 2.7125,1.5984 8.1563,-0.9688 12.4939,-5.8919 18.819,-7.8389 25.4687,-7.9062 5.6004,-0.057 7.0767,0.2303 11.0625,2.25 4.7326,2.398 11.2246,7.4115 21.7188,16.75 14.4787,12.8841 27.2218,20.4407 37.0937,21.9687 7.8977,1.2225 17.00557,-0.3091 31.03127,-5.2187 6.2874,-2.2009 12.6405,-4.4159 14.0937,-4.9063 l 7.3125,-1.9687 c 8.1024,15.8608 24.5909,26.7187 43.625,26.7187 27.0355,0 48.9375,-21.9021 48.9375,-48.9375 0,-27.0354 -21.902,-48.9687 -48.9375,-48.9687 -21.1214,0 -39.1324,13.3766 -46,32.125 l -4.3437,-1.1563 c -1.1812,0.2965 -5.063,-1.0556 -11.4063,-4 -5.2931,-2.457 -12.7214,-5.2204 -16.5,-6.125 -8.07397,-1.9329 -17.93017,-2.1968 -19.31247,-0.5312 -1.3666,1.6466 -0.3501,3.3191 2.6563,4.4062 1.4673,0.5306 6.8009,3.5327 11.875,6.6875 12.15407,7.5569 17.17927,10.0632 24.28117,12.0313 3.2393,0.8976 6.4527,2.1714 7.125,2.8437 1.0911,1.0911 1.0012,1.446 -0.7812,3.2188 -3.3754,3.3569 -10.8114,4.7315 -23,4.25 -15.16997,-0.5994 -16.89437,-1.2647 -51.34377,-20.1875 -19.5058,-10.7145 -25.4454,-13.0819 -33.1875,-13.125 -5.5018,-0.031 -6.7311,0.292 -12.5312,3.1562 -5.104,2.5205 -8.0213,4.7958 -14.1875,10.9375 -8.5898,8.5557 -12.9416,14.2953 -12.9063,16.6563 z m 166.68747,-2.2188 c 0,-18.1565 14.6873,-32.875 32.8438,-32.875 18.1565,0 32.9062,14.7185 32.9062,32.875 0,18.1565 -14.7497,32.8438 -32.9062,32.8438 -18.1565,0 -32.8438,-14.6873 -32.8438,-32.8438 z"
       style="color:#000000;fill:#cc0000;fill-opacity:1;fill-rule:nonzero;stroke:none;stroke-width:3;marker:none;visibility:visible;display:inline;overflow:visible;enable-background:accumulate"
       inkscape:connector-curvature="0" />
  </g>
</svg>
