<?xml version="1.0"?><svg width="640" height="480" xmlns="http://www.w3.org/2000/svg">
 <title>Black &amp; Yellow Phoenix</title>
 <defs>
  <radialGradient r="0.5" cy="0.5" cx="0.5" id="svg_15" spreadMethod="pad">
   <stop stop-color="#0000ff" offset="0"/>
   <stop stop-color="#ffffff" offset="0.203125"/>
  </radialGradient>
 </defs>
 <metadata id="metadata6122">image/svg+xml</metadata>
 <g>
  <title>Layer 1</title>
  <ellipse ry="43" rx="56" id="svg_16" cy="227" cx="301" stroke-width="5" stroke="#ffffff" fill="#ffff00"/>
  <g id="layer1">
   <g id="g6100">
    <path fill="#3f3f3f" fill-rule="evenodd" stroke-width="1px" d="m247.984009,193.630005c-4.294006,4.095993 -12.125,12.097992 -22.57901,11.446991c-2.365997,-0.147995 -3.54599,-1.733994 -4.100983,-3.506989c-0.266022,1.243988 -1.787018,3.678986 -4.012024,3.137985c-4.140991,-1.005997 -8.474976,-3.418991 -13.08197,-7.153c7.112,18.806 19.855957,23.718002 35.960999,20.338013c-7.091003,-1.604004 -13.509033,-3.924011 -18.466003,-7.797012c13.334961,0.513 22.526001,-9.14299 26.278992,-16.465988z" id="path5097" stroke="#603207"/>
    <path fill="#3f3f3f" fill-rule="evenodd" stroke-width="1px" d="m249.701996,212.031998c-6.210999,9.824997 -20,17.388 -32.102997,12.277008c7.865997,13.481995 22.794006,14.998993 28.999023,5.360001c-4.639038,3.481995 -10.468018,2.401993 -13.031006,-0.169006c10.458984,-4.121994 13.414978,-10.755005 16.134979,-17.468002z" id="path5099" stroke="#603207"/>
    <path fill="#3f3f3f" fill-rule="evenodd" stroke-width="1px" d="m254.078979,228.884995c-2.731995,8.333008 -16.689972,19.28801 -27.46698,19.940018c13.359009,8.644989 20.796021,4.08197 26.537994,-4.26001c-3.360992,1.375 -5.510986,2.050995 -7.692993,-0.184998c6.027985,-4.215012 8.509979,-10.623001 8.621979,-15.49501z" id="path5101" stroke="#603207"/>
    <path fill="#3f3f3f" fill-rule="evenodd" stroke-width="1px" d="m258.673004,245.701004c-3.651001,7.949997 -11.092987,15.718002 -19.584015,16.213974c8.179016,4.007019 17.026001,3.555023 22.921021,-2.380981c-3.950012,1.112 -6.916992,2.257019 -9.465027,0.913025c4.584015,-2.731018 6.85202,-10.465027 6.128021,-14.746017z" id="path5103" stroke="#603207"/>
    <path fill="#3f3f3f" fill-rule="evenodd" stroke-width="1px" d="m297.703003,352.891998c-17.809998,-33.752991 -10.838989,-67.45401 -4.218018,-101.613007c-5.815002,-13.243988 -11.899963,-26.242996 -20.949982,-36.542999c-1.613007,12.140015 3.690002,27.032013 12.977997,42.016022c-6.410004,15.010986 -13.667999,29.053986 -17.925995,43.973999c-1.680023,5.888977 1.436005,4.139984 4.975006,1.180969c-2.05603,5.819031 -4.627014,10.915039 -10.527008,11.335999c-2.821991,-6.550964 2.779999,-17.005981 6.631012,-25.094971c4.303986,-11.04303 9.84198,-21.186005 14.970978,-31.627014c-13.17099,-17.052002 -19.5,-34.095001 -18.997986,-51.128998l-6.088013,-4.817001c1.350983,16.160004 3.925018,32.473007 16.763,50.064011c-3.725006,11.506012 -11.149017,19.944 -20.774994,22.859985c7.011993,-5.924988 13.190979,-13.097992 16.02002,-21.244995c-14.337036,-19.362 -16.198029,-38.626999 -18.206024,-57.893005c-8.980988,-11.059998 -29.240997,-15.759995 -41.528992,-13.625992c6.368988,7.147003 15.853973,12.315994 28.668976,14.223999c-22.405975,-0.522995 -43.246979,-3.824997 -54.594971,-24.003998c9.072998,1.655991 19.540985,4.431992 28.666992,2.723007c16.041016,1.514984 31.727997,6.757996 38.023987,12.550995c3.528992,3.247986 11.554016,9.738998 15.606018,10.481003c0.679993,-2.181 -2.350006,-7.186005 -3.372009,-8.444016c-10.411987,-12.819992 -21.386993,-19.945984 -35.184998,-29.273499c-7.619019,-5.665894 -25.042999,-2.865204 -33.153992,-1.777588c-1.225006,0.164307 -2.801025,0.387787 -4.02002,0.697205c0.991028,1.107788 2.426025,1.999695 4.127014,2.769501c2.054016,0.929688 5.872009,2.355988 5.872009,2.355988c0.777985,-0.952179 1.276978,-1.347 2.904968,-1.225998c1.367004,0.101501 2.024017,1.2332 2.680023,2.519608c9.194977,3.431793 17.765991,5.487793 28.058014,7.473785c-13.632019,-0.241974 -36.779022,-1.507996 -49.802002,-11.472595c-6.643005,-5.083099 -6.77301,-13.458679 -8.304016,-20.36319c4.567993,7.848785 11.161011,11.894989 21.401001,10.148682c5.067993,-0.864288 10.75,-0.465591 16.238007,0.599518c-8.711029,-8.121918 -11.195007,-15.783707 -12.628021,-24.133804c4.919006,8.743301 6.024017,17.456406 22.835999,24.184616c10.597015,4.241272 19.764008,11.38089 28.902008,18.091782c2.134003,-1.285004 4.01001,-4.834 2.563019,-8.320999c-5.729004,-7.453903 -11.942993,-14.966309 -19.55603,-21.039612c-3.609985,-0.736389 -7.219971,-1.191788 -10.828003,-3.378693c1.674011,8.589508 10.904022,14.708313 17.752014,21.605804c-24.575989,-13.7892 -30.357971,-29.867996 -29.739014,-46.726501c4.914001,11.434204 8.751038,23.080292 25.379028,25.051819c13.219971,7.991791 20.265991,22.8862 31.349976,33.452179c-3.815002,-0.018005 -11.608978,1.011993 -6.997986,6.756012c12.865997,16.031982 21.872986,30.975983 26.049011,46.106995c-4.251007,-6.465012 -8.223999,-11.658005 -14.014008,-15.115005c6.804993,10.718002 18.363007,25.432999 23.903992,37.695999l0.330994,13.328003c-3.227997,21.75 -10.645966,42.457001 -1.116974,69.769012l-1.122009,24.846985z" id="path5109" stroke="#603207"/>
    <path fill="#3f3f3f" fill-rule="evenodd" stroke-width="1px" d="m286.005981,269.619019c-2.549988,13.744995 -8.885986,25.479004 -12.138,38.83197c-2.216003,9.101013 -2.698975,24.953003 0.522034,25.426025c4.822998,0.711975 5.980988,-14.376007 7.968994,-22.972015c-1.408997,3.191986 -2.983002,8.294006 -5.062012,7.709991c-3.346985,-0.938995 0.815002,-17.526001 2.949005,-25.701996c1.636993,-6.269989 4.722992,-14.90799 5.759979,-23.293976z" id="path5111" stroke="#603207"/>
    <path fill="#3f3f3f" fill-rule="evenodd" stroke-width="1px" d="m277.401001,182.630997c4.095001,-1.5 6.824005,-3.348999 6.380981,-11.438995c-0.819977,-7.403397 -4.264984,-20.798401 -13.73999,-14.841812c-0.633972,-2.400879 0.433014,-5.978394 2.434998,-8.105896c5.299988,-5.635895 12.093994,-1.842194 17.491028,1.908005c4.371979,-2.161499 8.827972,-3.551697 14.17099,3.264404c5.835999,10.655807 13.222992,19.765305 25.740997,23.755295c-9.177979,-1.593994 -18.994019,-3.760986 -25.13501,-13.349594c-4.345001,-6.78511 -7.156006,-9.242599 -10.214996,-9.286392c0.708008,0.749786 1.248016,3.585892 1.769989,5.870178c-2.274994,-1.484283 -4.128998,-3.352188 -4.582001,-5.900192c-3.897003,-0.283295 -6.386993,-0.998199 -9.602997,-3.6745c0,0 6.76001,14.173508 4.970032,21.98851c-2.228027,9.724991 -4.38501,9.773987 -9.684021,9.810989l0,0z" id="path5113" stroke="#603207"/>
    <path fill="#3f3f3f" fill-rule="evenodd" stroke-width="1px" d="m299.175995,164.492401c3.549011,6.016602 9.537018,11.71759 16.460968,13.979599c-8.205963,1.613998 -15.908966,-6.705002 -16.460968,-13.979599z" id="path5115" stroke="#603207"/>
    <path fill="#3f3f3f" fill-rule="evenodd" stroke-width="1px" d="m292.075012,168.001999c6.428986,9.856003 14.246979,16.529999 25.138,16.160995c-8.604004,11.105011 -15.684998,23.811005 -18.470001,41.028c-4.44101,-12.751999 -9.244019,-25.136993 -16.550018,-34.974991c6.924988,-5.248993 9.641022,-12.783005 6.481995,-23.509003c4.118011,8.380997 4.284027,16.596008 0.202026,24.631989c4.151978,4.680008 6.875977,10.811005 8.368988,16.159012c2.363007,-6.740005 6.924988,-12.962997 10.451996,-16.692001c-8.553986,-8.626999 -14.207001,-16.752991 -15.622986,-22.804001z" id="path5117" stroke="#603207"/>
    <path fill="#3f3f3f" fill-rule="evenodd" stroke-width="1px" d="m298.013,353.544006c17.810974,-33.752991 12.57901,-68.106018 5.958984,-102.265015c5.815002,-13.243988 11.898987,-26.242996 20.949036,-36.542999c1.612976,12.140015 -3.690063,27.032013 -12.97702,42.016022c6.410004,15.010986 13.667999,29.053986 17.925018,43.973999c1.679993,5.888977 -1.436035,4.139984 -4.974976,1.180969c2.056946,5.819031 4.626953,10.915039 10.526978,11.335999c2.822021,-6.550964 -2.780029,-17.005981 -6.630981,-25.094971c-4.30304,-11.04303 -9.842041,-21.186005 -14.971039,-31.627014c13.17099,-17.052002 19.501007,-34.095001 18.998016,-51.128998l6.088013,-4.817001c-1.351074,16.160004 -3.925049,32.473007 -16.763062,50.064011c3.725037,11.506012 11.149048,19.944 20.775024,22.859985c-7.011963,-5.924988 -13.190979,-13.097992 -16.02002,-21.244995c14.337036,-19.362 16.199036,-38.626999 18.206055,-57.893005c8.980957,-11.059998 29.240967,-15.759995 41.528931,-13.625992c-6.368958,7.147003 -15.853943,12.315994 -28.667969,14.223999c22.405029,-0.522995 43.247009,-3.824997 54.593994,-24.003998c-9.072998,1.655991 -19.541016,4.431992 -28.666016,2.723007c-16.041992,1.514984 -31.727966,6.757996 -38.023926,12.550995c-3.530029,3.247986 -11.554077,9.738998 -15.607056,10.481003c-0.679993,-2.181 2.349976,-7.186005 3.372009,-8.444016c10.412048,-12.819992 21.387024,-19.945984 35.185974,-29.273499c7.619019,-5.665894 25.04303,-2.865204 33.153015,-1.777588c1.225037,0.164307 2.801025,0.387787 4.02002,0.697205c-0.991028,1.107788 -2.425964,1.999695 -4.127014,2.769501c-2.053955,0.929688 -5.871948,2.355988 -5.871948,2.355988c-0.778076,-0.952179 -1.277039,-1.347 -2.905029,-1.225998c-1.367004,0.101501 -2.024048,1.2332 -2.680054,2.519608c-9.194946,3.431793 -17.765991,5.487793 -28.057983,7.473785c13.633057,-0.241974 36.779053,-1.507996 49.802002,-11.472595c6.644043,-5.083099 6.77301,-13.458679 8.304016,-20.36319c-4.567993,7.848785 -11.16095,11.894989 -21.401001,10.148682c-5.067993,-0.864288 -10.75,-0.465591 -16.237976,0.599518c8.710999,-8.121918 11.194946,-15.783707 12.627991,-24.133804c-4.919006,8.743301 -6.023987,17.456406 -22.835022,24.184616c-10.598022,4.241272 -19.765015,11.38089 -28.902954,18.091782c-2.134033,-1.285004 -4.01001,-4.834 -2.562988,-8.320999c5.728943,-7.453903 11.942993,-14.966309 19.555969,-21.039612c3.609985,-0.736389 7.220032,-1.191788 10.828003,-3.378693c-1.674011,8.589508 -10.903015,14.708313 -17.752014,21.605804c24.575989,-13.7892 30.358032,-29.867996 29.739014,-46.726501c-4.914001,11.434204 -8.750977,23.080292 -25.379028,25.051819c-13.219971,7.991791 -20.265991,22.8862 -31.349976,33.452179c3.815002,-0.018005 11.609009,1.011993 6.997986,6.756012c-12.866028,16.031982 -21.872986,30.975983 -26.049011,46.106995c4.251007,-6.465012 8.223999,-11.658005 14.014038,-15.115005c-6.804016,10.718002 -17.698029,25.147018 -23.238037,37.410004l1.39502,13.179001c3.227997,21.75 7.247986,42.823975 -2.279999,70.135986l0.386993,25.567017z" id="path5119" stroke="#603207"/>
    <path fill="#3f3f3f" fill-rule="evenodd" stroke-width="1px" d="m349.841003,194.110001c4.294006,4.095993 12.125,12.097992 22.579041,11.447006c2.365967,-0.147003 3.545959,-1.734009 4.100952,-3.506012c0.265991,1.243011 1.786987,3.678009 4.011963,3.138c4.141052,-1.006989 8.475037,-3.418991 13.082031,-7.153992c-7.112,18.806 -19.855957,23.718994 -35.961975,20.337997c7.09198,-1.602997 13.509949,-3.923004 18.46698,-7.796997c-13.334961,0.513992 -22.526001,-9.141998 -26.278992,-16.466003z" id="path5121" stroke="#603207"/>
    <path fill="#3f3f3f" fill-rule="evenodd" stroke-width="1px" d="m348.122986,212.511993c6.210999,9.825012 20,17.388 32.103027,12.277008c-7.866028,13.481995 -22.794006,14.998993 -28.999023,5.360992c4.638977,3.48201 10.468018,2.401001 13.031006,-0.168991c-10.458984,-4.122009 -13.414978,-10.755997 -16.13501,-17.469009z" id="path5123" stroke="#603207"/>
    <path fill="#3f3f3f" fill-rule="evenodd" stroke-width="1px" d="m343.745972,229.365005c2.732056,8.334 16.690063,19.288986 27.467041,19.940994c-13.359009,8.644012 -20.796021,4.080994 -26.538025,-4.259995c3.361023,1.373993 5.511047,2.050003 7.693054,-0.185013c-6.028076,-4.214996 -8.51001,-10.622986 -8.62207,-15.495987z" id="path5125" stroke="#603207"/>
    <path fill="#3f3f3f" fill-rule="evenodd" stroke-width="1px" d="m339.151978,246.181c3.651001,7.951019 11.093018,15.718994 19.583984,16.214996c-8.178955,4.005981 -17.026001,3.554016 -22.920959,-2.380981c3.950012,1.110992 6.916992,2.255981 9.465027,0.911987c-4.583984,-2.72998 -6.853027,-10.463989 -6.128052,-14.746002z" id="path5127" stroke="#603207"/>
    <path fill="#3f3f3f" fill-rule="evenodd" stroke-width="1px" d="m311.819,270.100006c2.549988,13.744995 8.885956,25.478973 12.136993,38.832001c2.21698,9.099976 2.700012,24.953003 -0.520996,25.425995c-4.822998,0.710999 -5.981018,-14.376984 -7.968994,-22.972015c1.408997,3.19101 2.981995,8.29303 5.062012,7.709015c3.346985,-0.938995 -0.815002,-17.526001 -2.949036,-25.701019c-1.636963,-6.270996 -4.722992,-14.90799 -5.759979,-23.293976z" id="path5129" stroke="#603207"/>
   </g>
  </g>
  <ellipse ry="17" rx="18" id="svg_14" cy="199" cx="-283" stroke-width="5" stroke="#ffffff" fill="url(#svg_15)"/>
  <ellipse ry="3" rx="2" id="svg_17" cy="321" cx="-290" stroke-width="5" stroke="#ffffff" fill="#ffff00"/>
 </g>
</svg>